<svg width="14" height="14" viewBox="0 0 14 14" fill="none" xmlns="http://www.w3.org/2000/svg">
<path d="M11.0212 9.91506L7.35195 2.36117C7.2908 2.23374 7.19487 2.12618 7.07524 2.05089C6.95561 1.97561 6.81713 1.93566 6.67578 1.93566C6.53443 1.93566 6.39596 1.97561 6.27632 2.05089C6.15669 2.12618 6.06077 2.23374 5.99961 2.36117L2.33039 9.91506C2.26051 10.0549 2.23667 10.2132 2.26227 10.3674C2.28787 10.5216 2.36161 10.6638 2.47292 10.7735L2.48286 10.7835C2.5945 10.8956 2.73949 10.9685 2.89607 10.9912C3.05266 11.0139 3.21238 10.9852 3.35128 10.9094L6.67247 9.15271L9.99697 10.9061C10.1363 10.9816 10.2961 11.0104 10.453 10.9884C10.6099 10.9663 10.7556 10.8945 10.8687 10.7835C10.9832 10.6738 11.0597 10.5304 11.0871 10.3742C11.1145 10.2181 11.0914 10.0572 11.0212 9.91506Z" fill="#C0C0C0"/>
</svg>
